<svg id="Layer_1" data-name="Layer 1" xmlns="http://www.w3.org/2000/svg" viewBox="0 0 113.26 44.29"><path d="M16.24,31.66c-1.65,1.27-2.85,1.91-3.62,1.91a1,1,0,0,1-.91-.6,3.06,3.06,0,0,1-.29-1.31,11.84,11.84,0,0,1,1.13-4c.76-1.79,1.48-2.69,2.17-2.69.36,0,.66.7.91,2.1a17.38,17.38,0,0,0,.77,3.06q1.91-2,5.52-6.72,4.53-6,6-6.53a2.86,2.86,0,0,1,1-.19,1.62,1.62,0,0,1,.88.22.67.67,0,0,1,.35.56c0,.32-.27.5-.81.56a15.59,15.59,0,0,0-3,2.58A27.18,27.18,0,0,0,23.1,24.3a36.33,36.33,0,0,1-6.16,6.8,5.5,5.5,0,0,0,4.92,2.33c.25,0,.61,0,1.1-.06q7.78-.72,11-6.75a9.81,9.81,0,0,0,1.31-4.76,6.14,6.14,0,0,0-1.7-4.22,5.7,5.7,0,0,0-3-1.91,15,15,0,0,0-3.29-.36,16.29,16.29,0,0,0-7.95,2c-2.56,1.4-3.83,3-3.83,4.7a1.73,1.73,0,0,0,.37,1.15,2.26,2.26,0,0,0,.52.5h-.17A2.29,2.29,0,0,1,15,23a2.33,2.33,0,0,1-.62-1.54c0-1.86,1.17-3.47,3.51-4.81a16.27,16.27,0,0,1,8.25-2,20.6,20.6,0,0,1,4.48.51,8.25,8.25,0,0,1,4.17,2.4,7.14,7.14,0,0,1,2.16,5.07,9,9,0,0,1-1.23,4.34,12.68,12.68,0,0,1-6.36,5.66A18.65,18.65,0,0,1,22,34Q18.12,34,16.24,31.66Zm-3.81-.11a3.26,3.26,0,0,0,.33,1.51,10.62,10.62,0,0,0,2.92-2.21,8.9,8.9,0,0,1-1-2.11,11.15,11.15,0,0,1-.29-2A8.88,8.88,0,0,0,12.43,31.55Zm4-7.84a.09.09,0,0,0,.06,0s0,.06,0,.06Zm23,9a1.69,1.69,0,0,1-.56-.09c-1.19-.33-1.79-1-1.79-2q0-2,2.46-4.54c1.65-1.72,3.12-2.57,4.43-2.57a1.52,1.52,0,0,1,1,.35,1.06,1.06,0,0,1,.4.85c0,1.05-.78,2-2.36,3a8.09,8.09,0,0,1-3.85,1.42,1.15,1.15,0,0,1-.39-.05,3.21,3.21,0,0,0-.42,1.59c0,1,.46,1.46,1.38,1.46s2.13-.63,3.6-1.88a17.4,17.4,0,0,0,2.91-2.91c.17-.22.32-.33.44-.33s.18.05.18.16a1,1,0,0,1-.23.48,17,17,0,0,1-3.64,3.53A6.64,6.64,0,0,1,39.45,32.73Zm5.29-8.07c0-.22-.23-.33-.71-.33a3.79,3.79,0,0,0-2,1.09,12.38,12.38,0,0,0-2.74,3,1,1,0,0,0,.36.06,5.81,5.81,0,0,0,2.84-1.14,5,5,0,0,0,2.23-2.47A.66.66,0,0,0,44.74,24.66Zm9.31-3.3a2,2,0,0,1,1.42.56,2,2,0,0,1,.59,1.57q0,2.21-3.67,5.54a15.85,15.85,0,0,1-5,3.42,1.6,1.6,0,0,1-.81-.34c-.34-.22-.5-.43-.5-.61a21.57,21.57,0,0,1,1.34-4.18c.9-2.37,1.51-3.69,1.85-4a.46.46,0,0,1,.36-.11.76.76,0,0,1,.53.26,1,1,0,0,1,.31.63s-.46,1.1-1.38,3.25a13.12,13.12,0,0,0-1.31,3.84,16.92,16.92,0,0,0,4.3-2.94c2.06-1.72,3.1-3.26,3.1-4.62a1.88,1.88,0,0,0-1.24-1.8.26.26,0,0,1-.19-.25C53.74,21.44,53.84,21.36,54.05,21.36Zm16.86,4,2.87.08H74c.45,0,.67,0,.67.2s-.36.39-1.09.39L71.16,26a3.15,3.15,0,0,0-.87.14c-.78,1-1.84,2.38-3.16,4.22s-2,2.93-2,3.29c0,.15.17.11.5-.12.21,0,.31,0,.31.09s-.21.23-.62.42l-.78.42a1.82,1.82,0,0,1-1.22.45c-.46,0-.67-.12-.63-.34,0-.45.68-1.58,2-3.4s2.66-3.55,4.06-5.2a18.1,18.1,0,0,1-3.08.37c-.07,0-.11-.08-.11-.18s.11-.25.33-.44a1.17,1.17,0,0,1,.72-.28l1.22,0h1.42q1-1.27,4.23-5.93a6.08,6.08,0,0,0,1.35-3.19c0-1.31-1-2-2.92-2a14.37,14.37,0,0,0-5.33,1.26A21,21,0,0,0,60.94,19a12.94,12.94,0,0,0-2.89,3.28A6.22,6.22,0,0,0,57,25.39c0,1.48.88,2.21,2.63,2.21l.48,0a4.88,4.88,0,0,0,3.23-1.95,5.2,5.2,0,0,0,1.53-3,1.21,1.21,0,0,0,0-.25.8.8,0,0,1,.73.87A4.5,4.5,0,0,1,64,26a6.66,6.66,0,0,1-4.93,2.21,3.41,3.41,0,0,1-2.41-.81,2.93,2.93,0,0,1-.86-2.22q0-3.3,4-6.66A21.51,21.51,0,0,1,66,15a16.77,16.77,0,0,1,5.69-1.22,7.42,7.42,0,0,1,3.62.7,2.18,2.18,0,0,1,1.19,2,5.08,5.08,0,0,1-1.1,2.81Q74.77,20.24,70.91,25.34Zm11.45,1.09c0,.65-.62,1.74-1.87,3.27q-2.22,2.72-3.78,2.72h-.45a1.27,1.27,0,0,1-1.15-.76,2.15,2.15,0,0,1-.33-1.17c0-1.12.81-2.69,2.45-4.72s3-3,4-3,1.43.51,1.43,1.51a4.91,4.91,0,0,1-.14,1c0,.06.19.09.53.09a3.89,3.89,0,0,0,1.54-.54c0,.32-.76.78-2.21,1.38A1.69,1.69,0,0,1,82.36,26.43ZM80.54,25c-.63,0-1.53.75-2.7,2.24s-1.75,2.6-1.75,3.31.23,1.06.67,1.06c.81,0,1.82-.73,3.06-2.18s1.84-2.51,1.84-3.14A4.12,4.12,0,0,1,80.54,25Zm5.64,6.83a4.63,4.63,0,0,0,2.38-1,13.11,13.11,0,0,0,2.82-2.66c.23-.29.41-.44.54-.44s.19.05.19.16A6.45,6.45,0,0,1,91,29.34q-2.79,3.07-4.67,3.08A2.73,2.73,0,0,1,84.72,32a1.51,1.51,0,0,1-.64-1.35,5.8,5.8,0,0,1,.47-2.11,36.44,36.44,0,0,1,2.61-4.79q3.27-5.32,4.64-5.32a1,1,0,0,1,.58.21.69.69,0,0,1,.32.46l-2.48,3.33C89,24.07,88.15,25.25,87.69,26s-.82,1.25-1,1.61-.41.63-.52.82-.24.45-.39.77A4,4,0,0,0,85.25,31Q85.25,31.8,86.18,31.8ZM99.07,21.21a.73.73,0,0,1,.38.63.77.77,0,0,1-.35.63,1.28,1.28,0,0,1-.77.26,1.13,1.13,0,0,1-.77-.31.9.9,0,0,1-.35-.7c0-.52.36-.78,1.07-.78A1.32,1.32,0,0,1,99.07,21.21ZM93.21,32.67c-.95,0-1.43-.61-1.43-1.85a9,9,0,0,1,1.65-4.18c1.1-1.78,2-2.69,2.66-2.7a1.17,1.17,0,0,1,.63.22c.24.15.35.3.35.45s-.2.27-.33.43l-.42.52c-.15.19-.36.45-.62.8l-.76,1c-1.4,1.81-2.1,3.06-2.1,3.74s.24,1,.7,1a3.26,3.26,0,0,0,1.6-.64,14.19,14.19,0,0,0,3.72-3.19c.34-.43.57-.65.69-.65s.18.08.18.23-.21.44-.64.89l-1,1.07-.52.51-.52.48a6.52,6.52,0,0,1-.57.49l-.56.42a3.72,3.72,0,0,1-.65.41l-.64.29a3.5,3.5,0,0,1-1.4.25Zm13.86-6.24c0,.65-.62,1.74-1.87,3.27q-2.22,2.72-3.78,2.72H101a1.27,1.27,0,0,1-1.15-.76,2.15,2.15,0,0,1-.33-1.17c0-1.12.81-2.69,2.45-4.72s3-3,4-3,1.43.51,1.43,1.51a4.91,4.91,0,0,1-.14,1c0,.06.19.09.53.09a3.89,3.89,0,0,0,1.54-.54c0,.32-.76.78-2.21,1.38A1.69,1.69,0,0,1,107.07,26.43ZM105.25,25c-.63,0-1.53.75-2.7,2.24s-1.75,2.6-1.75,3.31.23,1.06.67,1.06c.81,0,1.82-.73,3.06-2.18s1.84-2.51,1.84-3.14A4.12,4.12,0,0,1,105.25,25ZM-4-9.44" transform="translate(4 9.44)"/></svg>